<svg width="265" height="62" viewBox="0 0 265 62" fill="none" xmlns="http://www.w3.org/2000/svg">
<g clip-path="url(#clip0_2357_1878)">
<path d="M205.847 54.5402H191.522V27.4202H205.073C208.549 27.4202 211.234 28.0653 213.055 29.3443C214.887 30.6289 215.819 32.3874 215.819 34.5684C215.819 35.8645 215.495 37.0406 214.852 38.0683C214.255 39.0275 213.407 39.804 212.344 40.3864C213.794 40.9345 214.955 41.7624 215.797 42.8529C216.69 44.0119 217.139 45.4221 217.139 47.055C217.139 49.4416 216.155 51.3086 214.215 52.6047C212.292 53.8893 209.476 54.5459 205.847 54.5459V54.5402ZM199.583 48.8136H205.227C207.866 48.8136 209.146 47.9571 209.146 46.1986C209.146 44.4401 207.866 43.5894 205.227 43.5894H199.583V48.8136ZM199.583 38.0969H204.288C206.734 38.0969 207.827 37.3261 207.827 35.6018C207.827 33.8776 206.734 33.1411 204.288 33.1411H199.583V38.0969Z" fill="#20446D"/>
<path d="M226.139 54.8884C224.438 54.8884 222.948 54.5972 221.707 54.0263C220.462 53.4496 219.5 52.6617 218.863 51.674C218.232 50.7034 217.902 49.5044 217.902 48.2026C217.902 46.1872 218.835 44.383 220.456 43.2525C222.026 42.162 224.66 41.5854 228.073 41.5854H232.164C231.993 39.5357 230.673 38.4908 228.034 38.4908C225.98 38.4908 224.37 38.8905 222.43 40.1637L222.328 40.2322L219.546 35.2193L219.648 35.1622C222.629 33.5064 225.451 32.8384 228.534 32.8384C232.175 32.8384 234.997 33.7348 236.92 35.3392C238.842 36.9436 239.815 39.4386 239.815 42.7444V54.5401H232.693V52.1307C231.515 53.9407 229.262 54.8941 226.139 54.8941V54.8884ZM228.989 45.6505C226.89 45.6505 225.536 46.564 225.536 47.98C225.536 48.5966 225.769 49.0705 226.253 49.4416C226.702 49.7842 227.567 50.0011 228.506 50.0011C229.365 50.0011 230.133 49.7956 230.781 49.3959C231.418 49.002 231.891 48.4139 232.175 47.6488V45.6505H228.989Z" fill="#20446D"/>
<path d="M246.022 61.5C244.861 61.5 243.684 61.323 242.512 60.9747C241.34 60.6207 240.373 60.1525 239.639 59.5759L239.565 59.5188L242.062 54.346L242.176 54.4488C243.098 55.2595 244.645 55.6763 246.033 55.4765C246.943 55.3452 247.649 54.9741 248.024 54.4202L238.791 33.2552H246.887L246.915 33.3237L252.16 45.9131L257.474 33.2495H265.006L255.642 55.0426C254.47 57.806 253.372 58.9193 251.887 59.907C250.294 60.9633 248.32 61.5 246.033 61.5H246.022Z" fill="#20446D"/>
<path d="M34.7136 54.5402H27.0734V54.426L26.9938 40.4549L20.8213 51.0517H16.1906L16.1564 50.9946L10.0579 40.8374V54.5459H2.37793V27.8484H11.3436L18.6197 40.1751L25.6626 27.8484H34.6283V27.9626L34.7079 54.5459L34.7136 54.5402Z" fill="#20446D"/>
<path d="M84.9466 54.5401H77.2211V43.6008C77.2211 40.7803 76.1117 39.41 73.8248 39.41C72.5732 39.41 71.5606 39.8154 70.8154 40.6147C70.0644 41.4198 69.6833 42.6416 69.6833 44.2631V54.5458H61.9578V33.2838H69.3249V35.4134C70.1327 34.6426 71.0884 34.0431 72.1636 33.6206C73.3299 33.1639 74.6155 32.9355 75.9923 32.9355C78.666 32.9355 80.8506 33.7291 82.4776 35.2935C84.1103 36.8636 84.9409 39.2502 84.9409 42.4018V54.5458L84.9466 54.5401Z" fill="#20446D"/>
<path d="M94.777 34.0546H100.096V39.7983H94.777V46.6668C94.777 47.3805 94.9704 47.9514 95.3573 48.3511C95.7555 48.7679 96.2561 48.9677 96.899 48.9506C97.7409 48.9335 98.4805 48.6994 99.1063 48.2598L99.2257 48.1741L101.285 53.5182L101.205 53.5696C100.574 53.9749 99.7946 54.3004 98.8844 54.5288C97.9571 54.7628 96.8762 54.8885 95.8465 54.8885C93.0419 54.8885 90.8517 54.1976 89.3384 52.8445C87.8195 51.4799 87.0515 49.4302 87.0515 46.741V28.8133H94.777V34.0546Z" fill="#20446D"/>
<path d="M113.471 54.8884C111.013 54.8884 108.823 54.4145 106.963 53.4782C105.097 52.5418 103.629 51.2229 102.605 49.5558C101.581 47.8886 101.063 45.9759 101.063 43.8691C101.063 41.7623 101.57 39.8953 102.571 38.2396C103.572 36.5838 104.972 35.2707 106.729 34.3343C108.487 33.398 110.495 32.9241 112.697 32.9241C114.899 32.9241 116.725 33.3637 118.431 34.2373C120.144 35.1108 121.52 36.3897 122.516 38.0455C123.517 39.7012 124.024 41.6881 124.024 43.9434C124.024 43.9662 124.024 44.029 123.91 45.7761V45.8846H108.72C109.033 46.8666 109.608 47.6374 110.427 48.1741C111.292 48.7393 112.396 49.0305 113.71 49.0305C114.7 49.0305 115.559 48.8878 116.275 48.6137C116.992 48.3339 117.726 47.8715 118.466 47.2377L118.551 47.1692L122.567 51.36L122.493 51.4399C120.445 53.7294 117.413 54.8941 113.476 54.8941L113.471 54.8884ZM108.584 41.7738H116.884C116.668 40.7575 116.207 39.941 115.502 39.3358C114.768 38.7078 113.835 38.3937 112.737 38.3937C111.639 38.3937 110.706 38.7135 109.972 39.3358C109.267 39.9353 108.8 40.7518 108.59 41.7738H108.584Z" fill="#20446D"/>
<path d="M133.234 54.5402H125.508V33.2781H132.875V35.5961C133.621 34.7454 134.565 34.0945 135.697 33.6549C136.926 33.1753 138.354 32.9298 139.941 32.9298H140.055V39.8097L139.924 39.7926C139.247 39.7184 138.684 39.6784 138.24 39.6784C136.676 39.6784 135.435 40.1009 134.554 40.9288C133.678 41.7567 133.228 43.047 133.228 44.7655V54.5459L133.234 54.5402Z" fill="#20446D"/>
<path d="M152.593 54.8884C150.136 54.8884 147.951 54.4145 146.085 53.4782C144.219 52.5418 142.751 51.2229 141.727 49.5558C140.703 47.8886 140.186 45.9759 140.186 43.8691C140.186 41.7623 140.692 39.8953 141.693 38.2396C142.689 36.5838 144.094 35.2707 145.852 34.3343C147.61 33.398 149.618 32.9241 151.82 32.9241C154.021 32.9241 155.847 33.3637 157.554 34.2373C159.266 35.1108 160.643 36.3897 161.639 38.0455C162.634 39.7012 163.14 41.6881 163.14 43.9434C163.14 44.0176 163.078 44.9825 163.027 45.7761V45.8846H147.837C148.15 46.8666 148.725 47.6374 149.544 48.1741C150.409 48.7393 151.512 49.0305 152.827 49.0305C153.816 49.0305 154.675 48.8878 155.392 48.6137C156.109 48.3339 156.843 47.8715 157.582 47.2377L157.662 47.1692L161.678 51.36L161.604 51.4399C159.556 53.7294 156.524 54.8941 152.588 54.8941L152.593 54.8884ZM147.712 41.7738H156.012C155.796 40.7575 155.335 39.9353 154.63 39.3358C153.896 38.7078 152.963 38.3937 151.865 38.3937C150.767 38.3937 149.834 38.7135 149.1 39.3358C148.395 39.9353 147.928 40.7518 147.718 41.7738H147.712Z" fill="#20446D"/>
<path d="M36.3235 43.6978C36.3235 43.7892 36.3064 43.8748 36.3064 43.9719C36.3064 46.113 36.8184 48.0199 37.8424 49.6985C38.8664 51.3771 40.3 52.6846 42.1375 53.6209C43.975 54.5573 46.0515 55.0254 48.3612 55.0254C50.6709 55.0254 52.7416 54.5573 54.5621 53.6209C56.3882 52.6846 57.8161 51.3714 58.8572 49.6814C59.5398 48.5623 59.9779 47.3462 60.2111 46.0444C57.2017 47.6374 53.8282 46.9979 52.0476 46.2899C51.8655 46.7067 51.638 47.0893 51.3364 47.4147C50.5628 48.2426 49.5672 48.6594 48.3555 48.6594C47.1437 48.6594 46.1539 48.2426 45.3745 47.4147C44.6008 46.5868 44.214 45.4392 44.214 43.9776C44.214 43.5722 44.2481 43.1954 44.305 42.8357C41.6653 42.1905 39.0143 42.2533 36.3178 43.7093" fill="#20446D"/>
<path d="M60.3819 44.383C60.3819 44.246 60.4104 44.109 60.4104 43.9662C60.4104 41.8252 59.8927 39.9125 58.8516 38.2225C57.8162 36.5325 56.3769 35.2079 54.5394 34.2601C52.7019 33.3066 50.6425 32.8328 48.3556 32.8328C46.0687 32.8328 43.9695 33.3066 42.132 34.2601C40.2944 35.2136 38.8608 36.5325 37.8368 38.2225C37.1314 39.3872 36.6877 40.6719 36.4658 42.0479C39.2704 40.5862 42.0239 40.6205 44.7659 41.3741C44.9309 41.043 45.1243 40.7347 45.3689 40.472C46.1426 39.6327 47.1382 39.2102 48.3499 39.2102C49.5617 39.2102 50.5572 39.6327 51.3309 40.472C52.1046 41.3113 52.4914 42.4761 52.4914 43.9662C52.4914 44.286 52.463 44.5771 52.4289 44.8626C54.3233 45.5192 57.5261 45.976 60.3762 44.383" fill="#5594B9"/>
<path d="M168.442 61.5C167.282 61.5 166.104 61.323 164.932 60.9747C163.755 60.6207 162.793 60.1525 162.06 59.5759L161.986 59.5188L164.483 54.346L164.597 54.4488C165.518 55.2595 167.066 55.6763 168.454 55.4765C169.364 55.3452 170.07 54.9741 170.445 54.4202L161.212 33.2552H169.307L169.336 33.3237L174.581 45.9131L179.894 33.2495H187.426L178.062 55.0426C176.891 57.806 175.793 58.9193 174.308 59.907C172.715 60.9633 170.746 61.5 168.454 61.5H168.442Z" fill="#20446D"/>
<path d="M55.4894 24.3256C53.7202 24.3256 52.0305 24.0002 50.6083 23.3836C49.2316 22.7898 48.128 22.0304 47.3372 21.1341L47.2576 21.0427L48.1109 20.1806L48.2019 20.2776C48.9187 21.0541 49.8801 21.7164 51.0634 22.2474C52.3207 22.8069 53.8339 23.1038 55.4439 23.1038C57.7024 23.1038 59.4204 22.6642 60.5525 21.8021C61.7415 20.8943 62.3388 19.7752 62.3274 18.4791C62.3161 17.4286 61.9747 16.4637 61.3774 15.8357C60.7744 15.2019 60.0291 14.7166 59.153 14.3969C58.2656 14.0714 57.0311 13.7232 55.4894 13.3577C53.8794 12.9638 52.4914 12.6269 51.4673 12.2387C50.4433 11.8504 49.5616 11.2452 48.8448 10.4402C48.1507 9.66943 47.8037 8.70453 47.7354 7.40277C47.7241 6.38077 47.9801 5.54719 48.5831 4.60513C49.1577 3.71445 50.0451 2.98935 51.2284 2.45837C52.5312 1.876 54.0786 1.58482 55.6999 1.61336C56.9799 1.6362 58.0153 1.8132 59.3806 2.2357C60.5127 2.58968 61.5822 3.18918 62.5493 4.01134L62.6346 4.08557L61.9577 5.1304L61.8496 5.03905C60.8426 4.2283 59.8755 3.68019 58.88 3.37188C57.6 2.98935 56.7694 2.84661 55.7113 2.82948C53.6348 2.78952 51.8997 3.26911 50.7164 4.21117C49.5559 5.13611 49.0609 6.08959 49.0723 7.39135C49.1121 8.34483 49.4137 9.09848 49.9939 9.69798C50.6083 10.3317 51.3649 10.8227 52.2524 11.1539C53.1171 11.4793 54.2549 11.7477 55.6999 12.0902L55.899 12.1359C57.5602 12.5413 58.9141 12.9352 59.9267 13.3121C60.9507 13.6946 61.8268 14.2827 62.5322 15.0763C63.2547 15.887 63.6757 17.1089 63.6871 18.4221C63.6928 19.4155 63.3799 20.4089 62.7541 21.3681C62.1738 22.2588 61.2181 23.0068 59.9893 23.532C58.7833 24.0459 57.2643 24.3085 55.4837 24.3085L55.4894 24.3256Z" fill="#5594B9"/>
<path d="M70.235 24.2914C68.6705 24.2914 67.3735 23.8746 66.577 23.1209C65.7578 22.3387 65.3425 21.2597 65.3425 19.9065V4.03418H66.6794V8.21922H72.8746V9.40679H66.6794V19.7524C66.6794 20.8143 66.9866 21.6593 67.584 22.2531C68.1244 22.7898 69.1541 23.1095 70.3374 23.1095C71.4581 23.1095 72.4081 22.7841 73.1648 22.1446L73.2672 22.059L74.0124 23.0296L73.9214 23.1095C73.4947 23.4806 72.9429 23.7775 72.283 23.9831C71.6288 24.1886 70.9404 24.2914 70.235 24.2914Z" fill="#5594B9"/>
<path d="M95.471 24.2914C93.9065 24.2914 92.6095 23.8746 91.8187 23.1209C90.9995 22.3387 90.5842 21.2597 90.5842 19.9065V4.03418H91.9211V8.21922H98.1163V9.40679H91.9211V19.7524C91.9211 20.8143 92.2283 21.6593 92.8257 22.2531C93.3661 22.7898 94.3958 23.1095 95.5791 23.1095C96.6998 23.1095 97.6498 22.7841 98.4065 22.1446L98.5089 22.059L99.2541 23.0296L99.1631 23.1095C98.7364 23.4806 98.1846 23.7775 97.5247 23.9831C96.8705 24.1886 96.1821 24.2914 95.4767 24.2914H95.471Z" fill="#5594B9"/>
<path d="M80.7367 24.2914C78.8138 24.2914 77.2835 23.8517 76.1799 22.9839C75.0705 22.1103 74.5073 20.9342 74.5073 19.4954C74.5073 18.0566 75.0193 16.8976 76.0263 16.0355C77.0275 15.179 78.6431 14.6538 80.8334 14.6538H86.9034V13.3235C86.9034 11.7248 86.4711 10.4973 85.6177 9.67511C84.7587 8.84724 83.3024 8.43045 81.6184 8.43045C78.0913 8.43045 76.1173 10.6343 76.1173 10.6343L75.3834 9.65227C75.3834 9.65227 77.6874 7.20862 81.6526 7.20862C83.7063 7.20862 85.4812 7.7396 86.5848 8.77872C87.6885 9.82356 88.246 11.348 88.246 13.3178V24.1943H86.9432V21.2254C86.3971 22.1103 85.6405 22.824 84.6904 23.3607C83.5925 23.9773 82.267 24.2914 80.7423 24.2914H80.7367ZM80.8391 15.7728C79.1096 15.7728 77.8239 16.1782 77.0332 16.8062C76.2481 17.4286 75.8499 18.3706 75.8499 19.4326C75.8499 20.5802 76.2879 21.488 77.1583 22.1446C78.0401 22.8069 79.2632 23.1438 80.8049 23.1438C83.7859 23.1438 85.8396 21.8363 86.9091 19.2499V15.7785H80.8391V15.7728Z" fill="#5594B9"/>
<path d="M106.672 24.2914C104.994 24.2914 103.481 23.926 102.167 23.2066C100.853 22.4872 99.8003 21.4595 99.0493 20.1691C98.2984 18.8731 97.9172 17.3886 97.9172 15.7557C97.9172 14.1228 98.27 12.6383 98.9697 11.3423C99.6637 10.0462 100.648 9.02423 101.888 8.29913C103.128 7.57402 104.528 7.20862 106.052 7.20862C107.577 7.20862 108.942 7.56831 110.171 8.282C111.4 8.99568 112.384 10.0006 113.09 11.2738C113.795 12.547 114.153 14.0086 114.153 15.6244V16.0412H99.2257C99.2655 17.3658 99.6012 18.5705 100.221 19.621C100.864 20.7058 101.757 21.5622 102.878 22.1617C104.004 22.7669 105.279 23.0752 106.672 23.0752C107.81 23.0752 108.874 22.8697 109.841 22.4586C110.803 22.0532 111.599 21.448 112.219 20.6601L112.31 20.5459L113.186 21.4366L113.107 21.528C112.333 22.4129 111.377 23.1038 110.274 23.5777C109.17 24.0516 107.958 24.2914 106.678 24.2914H106.672ZM99.2598 14.9221H112.868C112.765 13.7231 112.418 12.6212 111.832 11.6449C111.224 10.6343 110.41 9.83498 109.414 9.27545C108.419 8.71592 107.287 8.43045 106.047 8.43045C104.806 8.43045 103.669 8.71592 102.662 9.27545C101.661 9.83498 100.847 10.6343 100.25 11.6449C99.6751 12.6212 99.3395 13.7231 99.2598 14.9221Z" fill="#5594B9"/>
<path d="M11.7931 24.2856C9.58578 24.2856 7.56054 23.7946 5.76854 22.8183C3.97654 21.842 2.55431 20.4831 1.536 18.7646C0.517689 17.0517 0 15.1105 0 12.9923C0 10.8741 0.517689 8.93288 1.536 7.22003C2.55431 5.50719 3.97654 4.14263 5.76854 3.16631C7.55485 2.1957 9.58578 1.69897 11.7931 1.69897C13.3518 1.69897 14.8366 1.95019 16.1963 2.44692C17.5616 2.94364 18.7563 3.69158 19.7348 4.6679L19.8258 4.75925L18.9725 5.6328L18.8814 5.54716C17.0382 3.81148 14.666 2.93222 11.8272 2.93222C9.87592 2.93222 8.08392 3.37756 6.49103 4.25682C4.90383 5.13608 3.6352 6.3579 2.72498 7.88233C1.81476 9.41247 1.35396 11.131 1.35396 12.9866C1.35396 14.8422 1.81476 16.5664 2.72498 18.0909C3.6352 19.621 4.90383 20.8371 6.49103 21.7164C8.07823 22.5956 9.87592 23.041 11.8272 23.041C14.6432 23.041 17.0212 22.1503 18.8814 20.3975L18.9725 20.3119L19.8258 21.1854L19.7348 21.2768C18.7563 22.2531 17.573 23.001 16.2133 23.5149C14.8594 24.023 13.3689 24.2799 11.7874 24.2799L11.7931 24.2856Z" fill="#5594B9"/>
<path d="M39.4866 24.1601H38.2407V0.5H39.4866V24.1601Z" fill="#5594B9"/>
<path d="M27.1532 24.2914C25.2303 24.2914 23.7 23.8517 22.5964 22.9839C21.487 22.1103 20.9238 20.9342 20.9238 19.4954C20.9238 18.0566 21.4358 16.8976 22.4428 16.0355C23.444 15.179 25.0597 14.6538 27.2499 14.6538H33.3199V13.3235C33.3199 11.7248 32.8876 10.4973 32.0342 9.67511C31.1752 8.84724 29.7189 8.43045 28.0349 8.43045C24.5078 8.43045 22.5338 10.6343 22.5338 10.6343L21.7999 9.65227C21.7999 9.65227 24.1039 7.20862 28.0691 7.20862C30.1228 7.20862 31.8977 7.7396 33.0013 8.77872C34.105 9.82356 34.6625 11.348 34.6625 13.3178V24.1943H33.3597V21.2254C32.8136 22.1103 32.057 22.824 31.1069 23.3607C30.009 23.9773 28.6835 24.2914 27.1589 24.2914H27.1532ZM27.2499 15.7728C25.5205 15.7728 24.2348 16.1782 23.444 16.8062C22.6589 17.4286 22.2607 18.3706 22.2607 19.4326C22.2607 20.5802 22.6988 21.488 23.5692 22.1446C24.4509 22.8069 25.6741 23.1438 27.2157 23.1438C30.1967 23.1438 32.2504 21.8363 33.3199 19.2499V15.7785H27.2499V15.7728Z" fill="#5594B9"/>
</g>
<defs>
<clipPath id="clip0_2357_1878">
<rect width="265" height="61" fill="white" transform="translate(0 0.5)"/>
</clipPath>
</defs>
</svg>
